<svg xmlns="http://www.w3.org/2000/svg" xmlns:xlink="http://www.w3.org/1999/xlink" width="256" height="256" version="1.1" viewBox="0 0 400 400"><title>BloomRPC Logo</title><defs><linearGradient id="linearGradient1" x1="40" x2="40" y1="91.008" y2="218.27" gradientUnits="userSpaceOnUse"><stop offset="0" stop-color="#42ec62"/><stop offset="1" stop-color="#3386f9"/></linearGradient><linearGradient id="linearGradient2" x1="102" x2="102" y1="86.142" y2="219.66" gradientUnits="userSpaceOnUse"><stop offset="0" stop-color="#2c88fb"/><stop offset="1" stop-color="#39ea64"/></linearGradient><linearGradient id="linearGradient3" x1="159" x2="159" y1="218.52" y2="91.256" gradientUnits="userSpaceOnUse"><stop offset="0" stop-color="#4bb5f5"/><stop offset="1" stop-color="#42ed65"/></linearGradient></defs><g><path fill="url(#linearGradient1)" d="m98.802 218.53c-81.733-14.898-60.957-120.18-58.123-127.52 46.294 26.34 58.325 97.705 58.123 127.52z" transform="matrix(2.7065 0 0 2.7065 -70.629 -214.84)"/><path fill="url(#linearGradient2)" d="m69.646 86.882c-30.6 49.65-34.776 111.65 32.503 132.78 67.279-21.13 63.249-83.13 32.649-132.78-8.3243 3.6983-20.769 6.5189-32.575 18.343-11.807-11.824-24.252-14.645-32.576-18.343z" transform="matrix(2.7065 0 0 2.7065 -70.629 -214.84)"/><path fill="url(#linearGradient3)" d="m101.15 218.57c81.733-14.898 61.004-119.97 58.17-127.31-46.294 26.34-58.372 97.495-58.17 127.31z" transform="matrix(2.7065 0 0 2.7065 -70.629 -214.84)"/></g><metadata/></svg>